PathFileType	4	(X/Y/Z)	Patient4_TMGait_0pt5_01_left_37.trc.trc
DataRate	CameraRate	NumFrames	NumMarkers	Units	OrigDataRate	OrigDataStartFrame	OrigNumFrames
75.675675675676	75.675675675676	4	33	mm	75.675675675676	18	       141
Frame#	Time	L.ASIS			Sacral			L.Shoulder			Chest			R.Shoulder			Neck			R.ASIS			R.Thigh.Superior			R.Thigh.Lateral			R.Thigh.Inferior			R.Patella			L.Thigh.Superior			L.Thigh.Lateral			L.Thigh.Inferior			L.Patella			L.Shank.Superior			L.Shank.Lateral			L.Shank.Inferior			R.Shank.Superior			R.Shank.Lateral			R.Shank.Inferior			R.Heel			R.Midfoot.Superior			R.Midfoot.Lateral			R.Toe			L.Heel			L.Midfoot.Lateral			L.Midfoot.Superior			L.Toe			L.Elbow			L.Wrist			R.Elbow			R.Wrist			
		X1	Y1	Z1	X2	Y2	Z2	X3	Y3	Z3	X4	Y4	Z4	X5	Y5	Z5	X6	Y6	Z6	X7	Y7	Z7	X8	Y8	Z8	X9	Y9	Z9	X10	Y10	Z10	X11	Y11	Z11	X12	Y12	Z12	X13	Y13	Z13	X14	Y14	Z14	X15	Y15	Z15	X16	Y16	Z16	X17	Y17	Z17	X18	Y18	Z18	X19	Y19	Z19	X20	Y20	Z20	X21	Y21	Z21	X22	Y22	Z22	X23	Y23	Z23	X24	Y24	Z24	X25	Y25	Z25	X26	Y26	Z26	X27	Y27	Z27	X28	Y28	Z28	X29	Y29	Z29	X30	Y30	Z30	X31	Y31	Z31	X32	Y32	Z32	X33	Y33	Z33	

18	49.504642857143	823.320920222605	961.196726336799	351.370491609186	625.762228238261	1015.912839692730	528.272333253965	810.101044187672	1433.942350430459	336.865997773082	923.865621780046	1355.021887963655	485.525334297293	864.175150879664	1433.642614529827	667.680070583726	829.896101028425	1492.848923547300	486.709504088277	855.034598417161	933.967162649497	624.373894133298	864.411771446468	726.086272108206	594.600599130219	767.750960736843	629.288605507944	656.060968316539	832.086440876577	566.564778954369	574.330515916708	817.089764306811	479.229587892442	578.984287236765	893.804178395047	776.884240528227	385.164284441921	847.078920435735	653.712427884166	304.032458601181	941.444518578739	589.157056770998	373.362529508118	968.162798740381	525.507191314030	369.738562635042	953.955087455436	454.923041755684	355.421375977898	895.509377574496	324.319556056294	297.242103605298	981.758998242700	226.940369319494	356.913213328016	778.315926443151	395.029821368299	584.617046641521	693.203761057534	301.274297359720	642.574808012668	722.714669616808	202.363307917192	579.593125953887	570.104788510048	47.540483996692	542.237228547966	740.115555806752	96.719977810492	589.094494261499	647.973811125548	38.380984188098	621.983216767128	856.096181187073	38.986754562400	626.872706602235	903.268855066464	41.030690630130	387.369506226854	981.983893612475	51.415392036305	312.475333561808	1045.576579911208	133.648884389045	337.704950676890	1182.275351968223	114.519073695674	321.182294505728	684.696950999941	1098.521123351010	235.983470754111	664.582227521820	839.824410242866	230.753109147042	977.210330184847	1119.983375535682	786.396385853670	1206.790074244151	1179.754421512458	705.740059471247	
19	49.517857142857	824.546035506510	960.059024179459	349.903921406354	626.834171605632	1014.790813631512	526.653345944453	809.403849356601	1433.239292482645	335.076676550073	923.671129484962	1354.642773437016	483.494221016328	864.076896560818	1433.072289460006	665.685406467380	829.292025151007	1492.136107160508	484.906782212889	856.119955358874	933.317734225334	623.005119916147	863.165407309030	724.775969460365	593.408118137968	765.495710747322	628.772310419335	655.144869774500	828.963844687509	565.329505657656	573.570759898039	812.955371855434	478.271821963970	578.084665377956	895.767415705547	775.974317559220	383.540358795266	847.247673119854	651.889527288756	303.888015634744	942.647158072240	587.983097037044	371.935949570244	968.450666280709	523.753660683526	369.024144455584	954.017257420819	452.879989537325	355.249279590886	894.347476377976	322.575139322302	298.100450423616	980.190863918183	224.899220682167	357.622968004129	773.691091223917	394.355222906585	583.907726829073	688.101710184371	301.208567109344	642.187167817209	716.785656454738	202.039748475868	579.288129207368	563.393851922909	47.565696303866	542.352077361123	733.425520854398	96.685889935641	589.048487133987	641.289313068836	38.386700880162	622.070539309126	849.401838790598	38.967699462345	626.888704577320	900.140635649907	40.678747870071	389.070055769960	978.540487880633	49.759687587952	313.748104739889	1043.493235952378	130.731111271594	338.620550680696	1179.601872420526	109.313037504918	321.451071267421	680.796270634122	1099.414267392524	234.521551379502	659.679935297098	840.624458723807	230.335212713590	981.452032091838	1121.341109706754	783.327598264648	1207.468635192837	1189.338941449518	700.356444801479	
20	49.531071428571	826.106962073218	958.794151549359	348.386473203724	628.122734745386	1013.518329720919	524.764676692515	808.724097201058	1432.399834485883	333.082997175824	923.482891817214	1354.254554698938	481.343004983319	863.800418005363	1432.456918478705	663.545161288058	828.619388131170	1491.347456806981	482.899636626416	857.386547684630	932.607617747520	621.566164092375	862.014310725735	723.422701680176	592.185527689183	763.220384333894	628.286593294180	654.163100014806	825.801785166486	564.080482572837	572.786674383157	808.748385210262	477.331554250886	577.147550947443	898.033566601682	774.857236091636	381.746369137115	847.487625765794	649.828631267325	303.753737629321	944.040641666179	586.611454657503	370.418074352118	968.704401023548	521.564297465459	368.267225756278	953.838662383196	450.326665994684	355.106953810126	892.385178318407	320.549303688470	299.038756875217	977.422240999348	222.224923150395	358.438687832053	769.021724620334	393.724421051481	583.184353334626	682.952700903160	301.192938752488	641.797985444600	710.818224584991	201.754918284807	579.001353860645	556.672500365415	47.634803811968	542.491220230875	726.731526095962	96.658495789420	589.024713732948	634.605057774156	38.398910202375	622.168095642638	842.711866947965	38.930330357067	626.908691485979	894.888949459560	40.191738928931	390.664619434399	973.118053139523	47.691037296313	315.013121997245	1039.837691457657	126.936563412454	339.796443064501	1175.260441632544	102.461072962263	322.119489928646	677.383354640735	1099.961742801302	232.999501633770	655.674705330481	841.040837447046	229.762392844173	985.024659018723	1122.397627273100	780.203379342643	1207.534211267060	1197.678430657262	695.098064898636	
21	49.544285714286	827.968434499167	957.437455199433	346.802118873038	629.612080378711	1012.141569468545	522.620015932091	808.093522334582	1431.446377203928	330.887901577481	923.324946792699	1353.868968254837	479.075789027219	863.373667165973	1431.810869616322	661.267732233227	827.923455709873	1490.507011760966	480.688391811366	858.826331997300	931.852844795502	620.031815564314	861.015813233038	722.056506880782	590.945071949221	760.978512056754	627.855535828331	653.110140293781	822.673076394755	562.846478983507	571.973666223396	804.554427471621	476.421476444468	576.172323636570	900.438009000223	773.494022017207	379.821558586471	847.750276068250	647.593104492103	303.564011624421	945.484043855591	585.033151013469	368.849616972626	968.833322571155	519.014652139073	367.486713792849	953.421904078864	447.393600314815	354.963504023991	889.854144409752	318.282656373532	299.991155456485	973.806211389660	219.092095574048	359.334575672342	764.374087047610	393.152751865150	582.448965608527	677.807481654836	301.261555015242	641.411595460837	704.849874830624	201.537362033113	578.743656465807	549.952143076714	47.804325020894	542.667239950385	720.056103974042	96.653076067753	589.033949674612	627.930677889886	38.445819800059	622.276463654351	836.034860424303	38.863810522843	626.935012383277	888.133237063064	39.601417558479	392.090643829303	966.354735655021	45.375666655529	316.243902455404	1035.089200910699	122.543742807269	341.244242443299	1169.770013738654	94.483204448153	323.271647750472	674.513569115826	1100.146763752451	231.413747011464	652.559127238002	841.071536495159	229.028589266366	987.924418361636	1123.115007678122	777.047821583843	1207.099973474930	1204.720408666360	689.993336886543	
